<?xml version="1.0" encoding="utf-8"?>
<!-- Generator: Adobe Illustrator 24.0.0, SVG Export Plug-In . SVG Version: 6.00 Build 0)  -->
<svg version="1.1" id="Layer_1" xmlns="http://www.w3.org/2000/svg" xmlns:xlink="http://www.w3.org/1999/xlink" x="0px" y="0px"
	 viewBox="0 0 412 98" style="enable-background:new 0 0 412 98;" xml:space="preserve">
<style type="text/css">
	.st0{fill:#FFFFFF;}
	.st1{fill-rule:evenodd;clip-rule:evenodd;fill:#FFFFFF;}
</style>
<g>
	<path class="st0" d="M94.3,34.8h12c1.7,0,3.3,0.4,4.7,1.1c1.4,0.7,2.6,1.7,3.4,2.9c0.8,1.2,1.2,2.6,1.2,4c0,1.5-0.4,2.9-1.1,4
		c-0.8,1.1-1.7,2-3,2.6v0.3c1.6,0.6,2.9,1.5,3.8,2.7c0.9,1.2,1.4,2.7,1.4,4.5c0,1.7-0.4,3.2-1.3,4.5c-0.9,1.3-2.2,2.3-3.6,3
		c-1.5,0.7-3.2,1-5.1,1H94.3V34.8z M105.9,47.3c1.3,0,2.3-0.3,3-1c0.8-0.7,1.1-1.6,1.1-2.6c0-1-0.4-1.9-1.1-2.6
		c-0.7-0.7-1.7-1-2.9-1h-5.9v7.3C100.1,47.3,105.9,47.3,105.9,47.3z M106.5,60.2c1.4,0,2.5-0.4,3.3-1.1c0.8-0.7,1.2-1.7,1.2-2.8
		s-0.4-2.1-1.2-2.9c-0.8-0.7-1.9-1.1-3.4-1.1h-6.2v7.9H106.5z M136.1,66.1c-3,0-5.7-0.7-8.2-2.1c-2.4-1.4-4.4-3.4-5.8-5.8
		c-1.4-2.5-2.1-5.1-2.1-8.1c0-2.9,0.7-5.6,2.1-8.1c1.4-2.4,3.3-4.4,5.8-5.8c2.4-1.4,5.2-2.1,8.2-2.1c3,0,5.7,0.7,8.2,2.1
		c2.4,1.4,4.4,3.4,5.8,5.8c1.4,2.5,2.1,5.1,2.1,8.1c0,2.9-0.7,5.6-2.1,8.1c-1.4,2.4-3.3,4.4-5.8,5.8
		C141.9,65.4,139.1,66.1,136.1,66.1L136.1,66.1z M136.1,60.6c1.8,0,3.6-0.4,5.2-1.3c1.6-0.9,2.8-2.2,3.7-3.7
		c0.9-1.6,1.3-3.4,1.3-5.5c0-2.1-0.4-3.9-1.3-5.5c-0.9-1.6-2.1-2.9-3.7-3.7c-1.6-0.9-3.4-1.3-5.2-1.3c-1.8,0-3.6,0.4-5.2,1.3
		c-1.5,0.9-2.8,2.2-3.7,3.7c-0.9,1.6-1.3,3.4-1.3,5.5c0,2.1,0.4,3.9,1.3,5.5c0.9,1.6,2.1,2.8,3.7,3.7
		C132.6,60.2,134.3,60.6,136.1,60.6z M171.3,66.1c-3,0-5.7-0.7-8.2-2.1c-2.4-1.4-4.4-3.4-5.8-5.8c-1.4-2.5-2.1-5.1-2.1-8.1
		c0-2.9,0.7-5.6,2.1-8.1c1.4-2.4,3.4-4.4,5.8-5.8c2.4-1.4,5.2-2.1,8.2-2.1c3,0,5.7,0.7,8.2,2.1c2.4,1.4,4.4,3.4,5.8,5.8
		c1.4,2.5,2.1,5.1,2.1,8.1c0,2.9-0.7,5.6-2.1,8.1c-1.4,2.4-3.3,4.4-5.8,5.8C177,65.4,174.3,66.1,171.3,66.1z M171.3,60.6
		c1.8,0,3.6-0.4,5.2-1.3c1.6-0.9,2.8-2.2,3.7-3.7c0.9-1.6,1.3-3.4,1.3-5.5c0-2.1-0.4-3.9-1.3-5.5c-0.9-1.6-2.1-2.9-3.7-3.7
		c-1.6-0.9-3.4-1.3-5.2-1.3c-1.8,0-3.6,0.4-5.2,1.3c-1.5,0.9-2.8,2.2-3.7,3.7c-0.9,1.6-1.3,3.4-1.3,5.5c0,2.1,0.4,3.9,1.3,5.5
		c0.9,1.6,2.1,2.8,3.7,3.7C167.8,60.2,169.5,60.6,171.3,60.6z M192.5,34.8h5.8v13.1h0.3l11.2-13.1h7v0.3l-11.1,12.7L218,65.1v0.3
		h-7.1l-9.2-13.1l-3.5,4.1v9h-5.8L192.5,34.8L192.5,34.8z M224.5,34.1h7.4l8.1,21.5h0.3l8.1-21.5h7.5v30.6h-5.7V49.6l0.3-5.1h-0.3
		l-7.8,20.2H238l-7.8-20.2h-0.3l0.3,5.1v15.1h-5.7L224.5,34.1L224.5,34.1z M272.2,34.1h6.6l11.5,30.6h-6.4l-2.6-7.3h-11.7l-2.6,7.3
		h-6.4C260.7,64.7,272.2,34.1,272.2,34.1z M279.5,52.1l-2.7-7.7l-1.1-3.7h-0.3l-1.1,3.7l-2.7,7.7H279.5L279.5,52.1z M295,34.1h11.2
		c2,0,3.8,0.4,5.3,1.2c1.6,0.8,2.8,2,3.6,3.4c0.9,1.5,1.3,3.1,1.3,5c0,2-0.6,3.7-1.9,5.2c-1.2,1.5-2.8,2.7-4.7,3.3l0,0.3l8.2,11.8
		v0.3h-6.6l-7.9-11.5h-2.7v11.5H295C295,64.7,295,34.1,295,34.1z M306.1,47.9c1.3,0,2.4-0.4,3.2-1.2c0.8-0.8,1.2-1.8,1.2-3
		c0-1.2-0.4-2.2-1.2-3c-0.8-0.8-1.8-1.2-3.2-1.2h-5.4v8.5L306.1,47.9L306.1,47.9z M322.7,34.1h5.8v13.1h0.3L340,34.1h7v0.3
		l-11.1,12.7l12.2,17.3v0.3h-7.1L332,51.7l-3.5,4.1v9h-5.8L322.7,34.1L322.7,34.1z"/>
	<path class="st1" d="M38.1,20.3C22.3,20.3,9.5,33.2,9.5,49s12.8,28.7,28.7,28.7S66.8,64.8,66.8,49S54,20.3,38.1,20.3z M46.4,63.9
		L38.2,56l-8.1,7.9V41c0-2.5,2.1-4.6,4.6-4.6h7.1c2.5,0,4.6,2.1,4.6,4.6V63.9z"/>
</g>
</svg>
