<?xml version="1.0" encoding="utf-8"?>
<!-- Generator: Adobe Illustrator 24.0.0, SVG Export Plug-In . SVG Version: 6.00 Build 0)  -->
<svg version="1.1" id="Layer_1" xmlns="http://www.w3.org/2000/svg" xmlns:xlink="http://www.w3.org/1999/xlink" x="0px" y="0px"
	 viewBox="0 0 412 98" style="enable-background:new 0 0 412 98;" xml:space="preserve">
<style type="text/css">
	.st0{fill:#FFFFFF;}
</style>
<g>
	<path class="st0" d="M6.5,65.8c-0.7,0-1.2-0.2-1.4-0.6c-0.2-0.4-0.3-1-0.3-1.8c0-0.8,0.1-1.4,0.3-1.8C5.3,61.2,5.7,61,6.5,61h3.1
		c2.6,0,4.6-0.3,5.7-1c1.2-0.7,1.8-1.5,1.8-2.5V35.1c0-0.9,0.3-1.4,0.8-1.7c0.5-0.3,1.3-0.4,2.3-0.4c1,0,1.7,0.1,2.2,0.4
		c0.5,0.3,0.8,0.8,0.8,1.7v22.3c0,5.6-4.5,8.4-13.4,8.4H6.5z"/>
	<path class="st0" d="M75.5,34.8c0.5-0.6,1-1,1.6-1.2c0.6-0.2,1.2-0.4,2-0.4c2.2,0,3.3,1,3.3,3.1v27.6c0,0.9-0.3,1.4-0.8,1.7
		c-0.5,0.3-1.3,0.4-2.3,0.4c-1,0-1.7-0.1-2.3-0.4c-0.5-0.3-0.8-0.8-0.8-1.7V42.5l-18,21.7c-0.5,0.6-1,1-1.6,1.3
		c-0.5,0.3-1.2,0.4-2,0.4c-0.9,0-1.6-0.1-2.2-0.4c-0.6-0.3-1.1-0.7-1.6-1.3l-18-21.7v21.3c0,0.9-0.3,1.4-0.8,1.7
		C31.8,65.9,31,66,30.1,66c-1,0-1.7-0.1-2.2-0.4c-0.5-0.3-0.8-0.8-0.8-1.7V36.3c0-2,1.1-3.1,3.3-3.1c1.5,0,2.7,0.5,3.6,1.6l20.7,25
		L75.5,34.8z"/>
	<path class="st0" d="M104.7,33.2c0.7,0,1.2,0.2,1.4,0.6c0.2,0.4,0.3,1,0.3,1.8c0,0.8-0.1,1.4-0.3,1.8c-0.2,0.4-0.7,0.6-1.4,0.6H100
		c-2.6,0-4.6,0.3-5.7,1c-1.2,0.7-1.8,1.5-1.8,2.5v5.8h29.2c0.7,0,1.2,0.2,1.4,0.6c0.2,0.4,0.3,1,0.3,1.8s-0.1,1.4-0.3,1.8
		c-0.2,0.4-0.7,0.6-1.4,0.6H92.5v11.7c0,0.9-0.3,1.4-0.8,1.7c-0.5,0.3-1.3,0.4-2.3,0.4c-1,0-1.7-0.1-2.2-0.4
		c-0.5-0.3-0.8-0.8-0.8-1.7V41.6c0-5.6,4.4-8.4,13.3-8.4H104.7z"/>
	<path class="st0" d="M147.3,52.2v5.3c0,1,0.6,1.8,1.8,2.5c1.2,0.7,3.1,1,5.8,1h21.5c0.7,0,1.2,0.2,1.4,0.6c0.2,0.4,0.3,1,0.3,1.8
		c0,0.8-0.1,1.4-0.3,1.8c-0.2,0.4-0.7,0.6-1.4,0.6h-21.7c-8.9,0-13.3-2.8-13.3-8.4V41.6c0-5.6,4.4-8.4,13.3-8.4h6.7
		c0.7,0,1.1,0.2,1.4,0.6s0.3,1,0.3,1.8c0,0.8-0.1,1.4-0.3,1.8s-0.7,0.6-1.4,0.6h-6.5c-2.6,0-4.6,0.3-5.8,1c-1.2,0.7-1.8,1.5-1.8,2.5
		v5.8h29.2c0.7,0,1.2,0.2,1.4,0.6c0.2,0.4,0.3,1,0.3,1.8s-0.1,1.4-0.3,1.8c-0.2,0.4-0.7,0.6-1.4,0.6H147.3z"/>
	<path class="st0" d="M187.7,63.9c0,0.9-0.2,1.4-0.7,1.7c-0.5,0.3-1.2,0.4-2.2,0.4c-1,0-1.7-0.1-2.1-0.4c-0.5-0.3-0.7-0.8-0.7-1.7
		V35.1c0-0.9,0.2-1.4,0.7-1.7c0.5-0.3,1.2-0.4,2.1-0.4c1,0,1.7,0.1,2.2,0.4c0.5,0.3,0.7,0.8,0.7,1.7V63.9z"/>
	<path class="st0" d="M197.2,55.7V58c0,0.9,0.6,1.7,1.7,2.3c1.1,0.6,3,1,5.5,1h5.2c0.7,0,1.1,0.2,1.3,0.6c0.2,0.4,0.3,0.9,0.3,1.7
		c0,0.8-0.1,1.3-0.3,1.7c-0.2,0.4-0.6,0.6-1.3,0.6h-5.4c-8.5,0-12.7-2.6-12.7-7.8v-9.8c0-5.2,4.2-7.8,12.7-7.8h10.4
		c4.5,0,7.8,0.6,9.7,1.9c2,1.3,3,3.3,3,5.9v5.2c0,0.9-0.2,1.5-0.5,1.8c-0.3,0.3-1.1,0.5-2.2,0.5H197.2z M197.2,51.2h24.4v-3
		c0-1.1-0.6-1.9-1.7-2.4c-1.1-0.6-3-0.9-5.5-0.9h-10c-2.5,0-4.4,0.3-5.5,0.9c-1.1,0.6-1.7,1.4-1.7,2.3V51.2z"/>
	<path class="st0" d="M243.2,65.8c-8.5,0-12.7-2.6-12.7-7.8v-9.8c0-5.2,4.2-7.8,12.7-7.8h22.5c0.7,0,1.1,0.2,1.4,0.6
		c0.2,0.4,0.3,1,0.3,1.7c0,0.8-0.1,1.3-0.3,1.7c-0.2,0.4-0.7,0.6-1.4,0.6h-22.3c-2.5,0-4.4,0.3-5.5,0.9c-1.1,0.6-1.7,1.4-1.7,2.3V58
		c0,0.9,0.6,1.7,1.7,2.3c1.1,0.6,3,1,5.5,1h22.5c0.7,0,1.1,0.2,1.3,0.6c0.2,0.4,0.3,0.9,0.3,1.7c0,0.8-0.1,1.3-0.3,1.7
		c-0.2,0.4-0.6,0.6-1.3,0.6H243.2z"/>
	<path class="st0" d="M273.7,40.4v-5.3c0-0.9,0.2-1.4,0.7-1.7c0.5-0.3,1.2-0.4,2.1-0.4c1,0,1.7,0.1,2.2,0.4c0.5,0.3,0.7,0.8,0.7,1.7
		v5.3h9.5c0.7,0,1.1,0.2,1.3,0.6c0.2,0.4,0.3,1,0.3,1.7c0,0.8-0.1,1.3-0.3,1.7c-0.2,0.4-0.6,0.6-1.3,0.6h-9.5v19
		c0,0.9-0.2,1.4-0.7,1.7c-0.5,0.3-1.2,0.4-2.2,0.4c-1,0-1.7-0.1-2.1-0.4c-0.5-0.3-0.7-0.8-0.7-1.7v-19h-2.6c-0.7,0-1.1-0.2-1.3-0.6
		c-0.2-0.4-0.3-0.9-0.3-1.7c0-0.7,0.1-1.3,0.3-1.7c0.2-0.4,0.6-0.6,1.3-0.6H273.7z"/>
	<path class="st0" d="M307.4,40.4c0.7,0,1.1,0.2,1.3,0.6c0.2,0.4,0.3,1,0.3,1.7c0,0.8-0.1,1.3-0.3,1.7c-0.2,0.4-0.6,0.6-1.3,0.6
		h-3.5c-2.2,0-3.8,0.3-4.6,0.9c-0.9,0.6-1.3,1.4-1.3,2.4v15.7c0,0.9-0.2,1.4-0.7,1.7c-0.5,0.3-1.2,0.4-2.2,0.4c-1,0-1.7-0.1-2.1-0.4
		c-0.5-0.3-0.7-0.8-0.7-1.7V48.2c0-2.6,1-4.6,3-5.9c2-1.3,4.9-1.9,8.7-1.9H307.4z"/>
	<path class="st0" d="M311.4,35.8c0-1,0.3-1.7,0.8-2.1c0.6-0.5,1.5-0.7,2.7-0.7c1.3,0,2.2,0.2,2.7,0.7c0.6,0.5,0.8,1.2,0.8,2.1
		c0,1-0.3,1.7-0.8,2.1c-0.6,0.5-1.5,0.7-2.7,0.7c-1.3,0-2.2-0.2-2.7-0.7C311.7,37.5,311.4,36.8,311.4,35.8z M317.8,63.9
		c0,0.9-0.2,1.4-0.7,1.7c-0.5,0.3-1.2,0.4-2.2,0.4c-1,0-1.7-0.1-2.1-0.4c-0.5-0.3-0.7-0.8-0.7-1.7V42.6c0-0.9,0.2-1.4,0.7-1.7
		c0.5-0.3,1.2-0.4,2.1-0.4c1,0,1.7,0.1,2.2,0.4c0.5,0.3,0.7,0.8,0.7,1.7V63.9z"/>
	<path class="st0" d="M334.4,65.8c-8.5,0-12.7-2.6-12.7-7.8v-9.8c0-5.2,4.2-7.8,12.7-7.8h22.5c0.7,0,1.1,0.2,1.4,0.6
		c0.2,0.4,0.3,1,0.3,1.7c0,0.8-0.1,1.3-0.3,1.7c-0.2,0.4-0.7,0.6-1.4,0.6h-22.3c-2.5,0-4.4,0.3-5.5,0.9c-1.1,0.6-1.7,1.4-1.7,2.3V58
		c0,0.9,0.6,1.7,1.7,2.3c1.1,0.6,3,1,5.5,1H357c0.7,0,1.1,0.2,1.3,0.6c0.2,0.4,0.3,0.9,0.3,1.7c0,0.8-0.1,1.3-0.3,1.7
		c-0.2,0.4-0.6,0.6-1.3,0.6H334.4z"/>
	<path class="st0" d="M372.7,65.8c-8.5,0-12.7-2.6-12.7-7.8v-2.4c0-5.2,4.2-7.8,12.7-7.8H392v0c0-0.9-0.6-1.6-1.7-2
		c-1.1-0.5-3-0.7-5.5-0.7h-4.2c-0.7,0-1.1-0.2-1.4-0.6c-0.2-0.4-0.3-0.9-0.3-1.7c0-0.8,0.1-1.4,0.3-1.7c0.2-0.4,0.7-0.6,1.4-0.6h4.4
		c8.5,0,12.7,2.6,12.7,7.8V58c0,5.2-4.2,7.8-12.7,7.8H372.7z M384.8,61.3c2.5,0,4.4-0.3,5.5-1c1.1-0.6,1.7-1.4,1.7-2.3v-5.9h-19.1
		c-2.5,0-4.4,0.3-5.5,0.9c-1.1,0.6-1.7,1.4-1.7,2.3V58c0,0.9,0.6,1.7,1.7,2.3c1.1,0.6,3,1,5.5,1H384.8z"/>
	<path class="st0" d="M407.2,63.9c0,0.9-0.2,1.4-0.7,1.7c-0.5,0.3-1.2,0.4-2.2,0.4c-1,0-1.7-0.1-2.1-0.4c-0.5-0.3-0.7-0.8-0.7-1.7
		V35.1c0-0.9,0.2-1.4,0.7-1.7c0.5-0.3,1.2-0.4,2.1-0.4c1,0,1.7,0.1,2.2,0.4c0.5,0.3,0.7,0.8,0.7,1.7V63.9z"/>
</g>
</svg>
