<?xml version="1.0" encoding="UTF-8"?>
<svg width="295px" height="129px" viewBox="0 0 295 129" version="1.1" xmlns="http://www.w3.org/2000/svg" xmlns:xlink="http://www.w3.org/1999/xlink">
    <!-- Generator: Sketch 50.2 (55047) - http://www.bohemiancoding.com/sketch -->
    <title>Artboard 1 Copy 2</title>
    <desc>Created with Sketch.</desc>
    <defs></defs>
    <g id="Artboard-1-Copy-2" stroke="none" stroke-width="1" fill="none" fill-rule="evenodd">
        <g id="Kekou-Logo" fill="#000000">
            <path d="M180.183,81.3593 C180.598,76.6383 181.166,72.0973 182.296,67.4993 C182.624,66.1613 184.72,62.4643 183.85,61.6863 C186.192,60.5013 185.709,56.7533 186.947,54.7163 C188.121,52.7813 190.523,49.3893 192.22,47.8643 C194.794,45.5493 194.592,47.7343 197.28,48.2703 C199.098,48.6323 202.486,47.4743 203.776,46.3333 C201.587,45.1393 202.903,43.5153 204.752,45.7943 C204.913,45.9923 205.776,48.1893 205.895,48.4593 C206.22,49.1923 205.669,49.2993 205.92,49.9233 C206.413,50.1683 206.922,50.3763 207.446,50.5473 C207.724,50.9173 206.81,51.1443 206.904,51.4013 C207.131,52.0233 207.786,53.6723 207.951,54.5903 C208.274,56.3963 208.009,57.6073 207.57,59.4273 C206.066,65.6663 202.134,71.6433 202.134,78.2023 C207.539,78.8953 207.367,75.3413 208.868,70.9073 C210.549,65.9403 211.556,61.0133 212.398,55.9923 C212.763,53.8143 214.006,50.9623 212.462,48.8563 C211.956,48.1673 209.571,47.5483 209.455,47.0423 C209.073,45.3573 211.298,46.0163 211.32,44.6363 C211.348,42.9303 208.751,42.8573 209.006,41.1273 C207.871,41.3123 207.495,40.4873 207.604,39.4923 C207.82,37.5323 208.578,39.1733 209.499,38.3383 C211.49,36.5333 211.714,36.6733 214.328,36.9443 C220.974,37.6333 226.037,41.4903 229.99,46.8553 C233.408,51.4963 234.603,56.8163 233.611,62.5323 C233.096,65.4973 232.97,68.2613 232.182,71.1363 C231.583,73.3233 229.558,75.5023 229.251,77.5653 C228.256,76.8353 225.986,79.8573 225.12,81.1533 C223.184,84.0523 222.246,87.4613 219.015,89.5503 C216.544,84.5063 214.646,93.3273 213.146,94.9143 C211.447,96.7123 204.508,99.4783 202.59,96.9093 C199.927,99.5723 194.748,97.5493 191.239,96.3643 C186.629,94.8073 183.676,91.1383 178.572,90.7933 C179.97,91.9583 181.803,93.0723 183.046,94.3793 C184.537,95.9473 184.29,97.8093 185.414,99.3693 C186.757,101.2353 189.107,102.6953 190.615,104.5313 C192.452,106.7693 194.196,109.0463 196.149,111.1923 C198.888,114.2013 202.797,119.3173 207.522,117.7043 C209.745,116.9443 211.062,114.6183 213.074,113.4613 C215.15,112.2643 217.686,111.5423 220.062,111.5423 C223.975,123.3013 202.47,130.7803 194.103,129.2483 C186.119,127.7853 181.354,123.7483 175.956,117.8703 C173.783,115.5043 172.8,112.6323 170.928,110.1143 C168.659,107.0593 166.594,104.2773 164.664,100.9563 C161.865,96.1353 153.769,85.6563 156.403,79.5293 C158.255,75.2193 167.092,72.7293 170.281,76.1093 C172.435,78.3923 173.123,81.5933 175.142,83.9743 C175.74,84.6803 177.339,87.3433 177.954,87.7733 C178.819,88.3783 179.354,87.8323 179.642,87.9993 C180.382,88.4243 181.843,90.4543 182.744,89.1893 C182.887,88.9883 180.245,81.3593 180.183,81.3593" id="Fill-5"></path>
            <path d="M259.7563,75.6933 C262.4923,76.3183 263.2633,74.0163 265.4183,73.5743 C266.3883,73.3763 268.1363,74.2883 268.7203,73.6443 C268.6783,73.6913 268.9233,67.6553 268.9353,67.4493 C269.0953,64.6143 268.8943,61.9643 269.2453,59.1103 C269.9913,53.0563 270.1993,46.7503 272.1223,40.9183 C273.3223,37.2793 278.1233,29.8023 280.2603,36.6173 C280.6973,36.1793 281.5953,34.9173 282.3393,34.8683 C283.6373,34.7843 282.7843,35.5843 283.5683,35.9263 C285.4013,36.7283 286.9383,37.4423 288.9593,38.0643 C290.0413,38.3973 292.2183,38.8733 292.8913,39.9723 C293.3883,40.7853 293.0313,41.2653 293.3033,41.8203 C292.6603,40.5073 294.4923,46.2763 294.3083,44.2533 C294.4243,45.5193 294.1763,45.7483 293.8323,46.9633 C293.1673,49.3083 292.9183,50.7313 292.9193,53.1673 C292.9193,55.6673 292.2083,56.1873 291.3783,58.7213 C290.4173,61.6593 291.8283,64.2663 291.2203,67.2543 C290.5543,70.5203 289.7613,73.7123 289.9903,77.0933 C290.0653,78.1863 290.5163,79.2353 290.4963,80.3333 C290.4933,80.5223 289.3853,80.2243 289.3413,80.7803 C289.2123,82.4063 289.5123,83.1063 289.1733,84.9693 C288.9523,86.1873 288.0893,86.7823 287.9973,88.2353 C287.9373,89.2113 288.5593,90.1233 288.4703,91.1063 C288.3983,91.9093 287.0613,92.4563 287.1463,93.2413 C287.2733,94.4143 288.8163,94.8973 289.0683,96.0483 C289.7193,99.0303 287.3223,98.6933 286.0683,100.3573 C284.6493,102.2393 286.0683,104.5893 284.4813,106.4633 C279.9893,111.7693 279.8783,99.9403 279.8803,98.2563 C278.1243,98.4483 276.3653,98.6393 274.3903,98.8543 C274.3903,98.6073 274.7463,91.3033 272.7663,93.7573 C270.5583,96.4933 276.9043,99.9023 270.1193,99.5883 C269.1943,95.1823 268.9443,91.7983 264.4973,89.6313 C261.0253,87.9393 257.2483,87.5743 253.6043,86.4823 C249.1193,85.1383 245.6223,82.6093 243.0593,78.6683 C241.3723,76.0753 240.7523,72.4903 240.1123,69.5043 C239.7313,67.7163 239.8053,66.5063 239.6903,64.7493 C239.6113,63.5433 238.8513,61.8733 238.8403,60.9003 C238.7963,56.9223 239.5943,52.6503 239.5733,48.5443 C239.5563,45.1403 241.4463,42.4913 238.7193,40.1453 C241.0893,38.4973 240.4693,36.4893 242.1423,34.6803 C243.9623,32.7153 246.0753,33.7423 248.0363,33.8803 C252.0003,34.1593 256.4343,34.4163 259.5613,37.7073 C263.4303,41.7793 261.0403,47.7063 260.1863,52.7293 C258.9263,60.1353 259.7563,68.2053 259.7563,75.6933" id="Fill-6"></path>
            <path d="M95.0853,119.9413 C92.2723,127.0193 81.3143,126.2813 75.2533,127.0003 C74.2723,127.1173 73.6193,127.7603 72.5733,127.7993 C72.1443,127.8163 70.2713,127.2083 69.6443,127.1213 C65.7623,126.5803 62.6393,125.6703 59.1243,123.7763 C52.8913,120.4163 47.0933,115.9483 43.5903,109.7163 C40.2783,103.8283 36.1653,98.6823 33.6753,92.0803 C32.2813,88.3873 31.0383,84.6103 30.1823,80.7543 C29.2303,76.4663 28.1683,76.2473 25.4183,73.1353 C20.7263,67.8263 30.1723,59.6813 33.3033,55.1733 C33.6803,54.6303 34.5413,52.7913 34.7773,52.5463 C35.6063,51.6903 36.8133,51.7993 37.6093,50.8093 C38.7163,49.4343 37.7493,48.4183 38.4143,47.0983 C38.8173,46.3003 40.0403,45.6163 40.3513,44.8353 C41.2053,42.6793 39.8993,40.4383 42.4253,38.7793 C43.2183,38.2573 44.2483,38.9253 45.3003,38.2913 C45.8533,37.9583 46.8033,33.6943 47.1233,33.8823 C48.9953,34.9753 50.2993,30.6923 51.7623,29.1113 C54.5403,26.1093 56.0343,26.2693 59.3013,28.3863 C59.9023,28.7763 60.5673,28.3363 61.2503,28.8863 C60.6603,28.4113 62.8673,31.9063 62.7763,31.7953 C64.7043,34.1613 65.8423,35.3373 64.4953,39.0093 C62.2003,45.2743 55.2993,50.7533 50.9913,55.4463 C49.8663,56.6713 50.1373,57.4713 49.3033,58.7013 C49.0643,59.0523 47.6873,59.8473 47.6143,60.1203 C46.8303,63.0393 48.7623,64.8383 49.3053,67.9193 C50.4163,74.2243 51.5513,80.2303 53.9823,85.9753 C56.0333,90.8223 58.0493,96.3143 61.5893,100.3363 C66.2623,105.6453 70.3733,110.9813 76.8193,114.3933 C82.8073,117.5623 88.7673,118.2273 95.0853,119.9413" id="Fill-7"></path>
            <path d="M35.3129,47.4306 C35.5029,50.1566 34.1159,51.2146 32.5229,53.1486 C31.4859,54.4066 29.7709,58.7126 28.2949,56.8866 C25.9209,53.9486 33.2029,49.1886 35.3129,47.4306" id="Fill-8"></path>
            <path d="M292.683,77.6796 C292.684,75.2766 294.44,75.5706 294.501,77.7206 C294.566,80.0256 292.954,79.8846 292.683,77.6796" id="Fill-9"></path>
            <path d="M180.185,83.1269 C180.171,85.3099 177.913,85.2429 178.354,82.9319 C178.471,82.3149 178.057,81.2149 179.298,81.3559 C180.88,81.5379 179.53,82.3379 180.185,83.1269" id="Fill-10"></path>
            <path d="M285.726,28.9569 C285.065,29.7599 284.547,30.3899 284.029,31.0189 C283.618,30.6309 283.205,30.2419 282.794,29.8539 C284.097,28.6249 284.141,28.1649 285.726,28.9569" id="Fill-11"></path>
            <path d="M35.1947,44.9325 C34.5967,45.6645 34.2157,46.1335 33.8327,46.6025 C32.3187,44.6705 32.9947,43.1755 35.1947,44.9325" id="Fill-12"></path>
            <path d="M292.683,57.4755 C294.713,59.3685 294.713,59.3685 293.008,61.4205 C292.791,60.0695 292.683,58.8435 292.683,57.4755" id="Fill-13"></path>
            <path d="M246.4603,28.8524 C245.8103,29.3934 245.3623,29.7664 244.9153,30.1394 C243.7003,27.8154 244.7923,26.7044 246.4603,28.8524" id="Fill-14"></path>
            <path d="M0.000400000001,81.3593 C2.0954,78.6513 0.7804,73.0143 0.6874,69.7443 C0.5854,66.0953 1.2394,62.1983 1.9444,58.6303 C3.5484,50.5103 5.4154,42.1323 6.5534,33.8923 C6.8024,32.0903 7.0904,30.2413 7.5674,28.5343 C7.7154,28.0103 8.8624,28.0713 9.1874,27.2643 C9.1924,27.2513 8.3494,25.3843 8.4784,24.8683 C8.6204,24.2943 10.4354,24.9193 10.7554,24.4593 C10.3584,25.0273 10.6994,21.3613 10.7684,21.5993 C10.5334,20.7833 9.2614,21.0903 9.1864,19.9783 C9.1814,19.9073 9.9714,17.0023 10.0624,16.8943 C11.1594,15.5913 10.2114,15.1533 12.6114,16.5333 C12.2404,12.9873 14.2284,10.2963 15.1284,7.1343 C16.5074,7.3803 19.4694,9.5103 20.4194,10.2073 C21.3664,10.9023 21.2574,12.3153 22.7284,12.6163 C23.9874,12.8733 25.0734,11.2963 26.5184,11.8633 C28.7304,12.7343 28.6924,16.7643 28.4674,18.6643 C29.2624,19.1553 29.4344,19.7153 28.9834,20.3453 C28.8074,20.5423 28.6304,20.7383 28.4534,20.9333 C27.4324,21.0943 27.1574,21.5853 27.6294,22.4033 C28.4844,22.5673 29.3364,22.5253 30.1834,22.2763 C30.1834,23.1133 30.5074,25.5513 29.9734,26.2603 C29.2944,27.1603 28.2084,26.8053 27.6414,27.3863 C26.6824,28.3693 25.9284,29.0333 25.6754,30.6623 C30.7234,28.6733 26.9694,38.0033 26.6804,40.0853 C26.4494,41.7473 27.1244,44.4213 25.3284,45.2303 C24.2104,45.7333 25.0654,43.0363 23.0624,44.1203 C24.1224,48.0673 25.8324,49.5663 24.8124,53.9923 C24.6384,54.7543 24.3744,55.8563 24.2804,56.6353 C24.2014,57.2933 24.7964,57.9743 24.6744,58.5043 C24.2964,60.1313 22.3874,61.2923 23.7804,63.1133 C21.4434,65.6373 22.3724,72.7263 21.8964,76.0323 C21.5204,78.6523 21.0074,81.2643 21.0144,84.1743 C21.0194,86.1943 20.6614,87.8753 20.4484,89.7933 C20.2324,91.7273 20.9024,93.5153 20.7424,95.4023 C20.5274,97.9323 18.6834,99.1743 19.0024,102.0313 C19.3054,104.7373 20.3284,105.4513 17.2784,106.4543 C18.7144,107.2843 20.3224,108.2983 17.6364,109.0133 C16.5404,109.3053 14.7934,107.1513 14.8594,107.1053 C14.7024,107.6103 14.5684,108.1213 14.4594,108.6383 C15.0154,108.1623 11.5824,108.0853 12.2824,108.6513 C11.1294,107.7173 10.1924,103.3743 9.6834,102.0893 C8.3264,105.2293 5.6284,103.0583 8.0584,101.7643 C7.2984,101.6103 6.5394,101.4463 5.7834,101.2713 C5.6474,100.7503 5.4774,100.2403 5.2694,99.7443 C4.8604,99.6723 4.2454,100.7243 3.8224,100.4103 C2.5054,99.4263 2.8984,95.5103 2.7544,94.1343 C2.6904,93.5363 3.1534,92.8703 3.1394,92.2203 C2.6544,91.9163 2.3294,91.4883 2.1644,90.9363 C1.5404,90.1853 1.6144,89.3973 2.3884,88.5733 C2.3544,88.4633 2.0804,86.9753 2.0804,86.9753 C2.0544,86.8313 0.9394,85.8693 0.7394,85.2583 C0.5114,84.5633 1.6844,83.8733 1.4554,82.9683 C1.2194,82.0363 0.000400000001,82.9953 0.000400000001,81.3593" id="Fill-1"></path>
            <path d="M66.084,78.656 C65.896,80.239 64.886,82.705 63.976,80.037 C63.514,78.685 64.826,78.381 64.873,77.191 C64.932,75.731 64.179,74.642 63.819,73.264 C65.102,73.264 69.435,74.091 70.388,73.411 C71.36,72.718 71.128,71.261 71.761,70.481 C72.205,69.934 73.671,70.534 74.29,69.803 C74.196,69.366 73.986,68.995 73.662,68.689 C72.851,67.96 73.009,67.092 74.137,66.086 C74.829,64.206 74.575,63.588 76.567,63.262 C76.086,64.309 76.011,64.918 75.827,66.059 C76.905,65.184 77.596,64.625 78.41,63.965 C78.654,65.267 75.314,70.458 75.981,71.01 C76.668,71.118 77.204,70.846 77.587,70.192 C77.684,71.549 77.765,72.691 77.852,73.913 C79.226,73.392 78.423,71.912 78.992,70.677 C79.692,69.152 80.93,67.861 81.699,66.251 C82.585,64.392 83.278,64.867 82.396,63.065 C81.09,60.398 79.451,61.702 80.169,58.37 C80.093,58.723 82.038,54.751 81.685,54.952 C83.128,54.131 84.679,55.955 86.344,55.565 C89.508,54.823 92.547,50.127 93.559,47.396 C91.688,48.279 90.997,48.969 89.619,50.279 C88.943,50.922 90.078,52.692 88.239,51.849 C84.269,50.027 91.714,44.742 93.274,44.335 C92.835,44.073 92.584,43.7 92.519,43.215 C92.999,42.553 95.287,41.367 96.079,40.621 C97.09,39.672 97.956,38.52 99.144,37.779 C101.398,36.373 107.081,35.566 109.577,36.843 C111.662,37.911 112.371,40.16 114.569,41.245 C116.748,42.321 122.848,43.604 122.561,47.056 C124.227,47.509 124.837,50.585 125.088,51.85 C124.936,51.082 124.486,55.272 125.407,54.105 C124.512,55.238 122.487,54.129 121.867,55.047 C121.65,55.368 122.652,58.512 122.737,59.046 C123.6,58.934 124.346,58.836 125.092,58.738 C125.147,59.876 124.406,64 122.286,62.334 C121.068,64.618 122.211,65.7 120.251,68.02 C119.024,69.475 117.882,70.258 117.671,72.013 C117.61,72.521 119.074,72.415 118.912,73.471 C118.796,74.236 117.238,74.654 116.684,74.98 C114.475,76.282 112.675,77.134 110.49,78.914 C109.24,79.932 107.472,80.718 106.405,81.857 C105.532,82.789 105.621,83.858 104.943,84.678 C103.674,86.21 100.377,88.783 98.533,89.4 C97.19,89.85 94.486,89.996 92.818,90.357 C91.688,90.601 86.773,89.405 86.15,89.95 C85.399,90.609 86.9,95.791 87.378,96.385 C88.763,98.099 91.434,97.069 93.705,96.448 C96.234,95.757 99.06,93.03 101.579,92.84 C103.713,92.679 102.531,93.852 104.338,94.091 C106.047,94.316 109.219,92.954 110.822,92.195 C111.7,91.78 112.673,90.613 113.445,90.362 C114.343,90.069 115.181,90.503 115.695,90.35 C116.944,89.98 122.769,84.134 123.322,85.16 C122.869,84.319 123.816,88.906 124.262,87.142 C123.732,89.236 120.162,90.288 118.22,91.289 C121.95,91.289 124.236,89.462 127.656,88.081 C133.006,85.92 129.437,84.245 129.12,79.849 C129.006,78.265 129.796,76.08 129.89,74.345 C130.034,71.658 130.291,68.971 130.522,66.29 C130.964,61.158 132.508,61.507 132.894,66.271 C133.944,64.146 134.753,58.607 133.727,56.664 C132.518,57.748 132.576,57.748 131.914,59.082 C131.836,57.426 131.177,55.249 132.321,53.872 C133.595,52.338 133.534,56.425 134.764,53.382 C135.765,50.904 132.421,52.259 131.786,51.064 C130.783,49.182 132.423,43.067 132.756,40.804 C132.992,39.205 133.49,38.333 133.529,36.532 C133.581,34.147 133.556,31.849 133.903,29.477 C134.541,25.095 135.837,21.07 136.25,16.699 C136.596,13.046 137.519,9.416 138.654,5.932 C139.059,4.687 139.477,2.379 140.57,1.536 C142.91,-0.268 143.81,2.335 145.456,2.087 C146.35,1.951 146.187,2.314 147.216,1.855 C148.599,1.237 146.717,-0.486 149.845,0.132 C150.284,3.555 150.727,7.024 151.162,10.419 C149.917,10.891 148.385,10.863 148.237,12.315 C148.099,13.657 149.71,14.053 149.792,15.12 C149.9,16.525 148.28,20.513 147.866,22.259 C147.701,22.957 146.314,25.912 146.72,26.324 C148.066,27.693 148.217,23.906 148.539,23.863 C149.178,23.778 149.813,24.363 150.875,24.233 C149.086,22.238 151.474,15.857 153.675,14.348 C152.98,17.945 152.896,21.693 152.362,25.342 C152.138,26.872 151.349,28.612 151.278,30.123 C151.237,30.998 151.619,32.023 151.536,32.85 C151.575,32.46 151.315,35.145 151.422,34.884 C151.148,35.555 148.219,38.247 146.842,37.463 C145.899,36.926 146.395,34.966 146.471,34.223 C146.718,31.789 147.04,30.931 146.488,28.294 C146.432,29.258 146.601,30.916 146.348,31.851 C146.033,33.021 145.266,32.637 145,33.437 C144.525,34.872 145.544,37.511 145.191,38.801 C144.673,40.689 143.154,40.763 142.519,42.809 C142.271,43.61 143.164,45.471 143.098,46.5 C143.011,47.843 142.257,49.527 141.797,50.748 C144.611,49.797 143.517,53.891 144.329,55.789 C144.904,51.042 146.341,45.999 146.643,41.273 C146.805,38.725 145.91,38.638 148.947,38.331 C148.947,39.972 148.328,42.096 148.418,43.551 C148.439,43.881 149.574,43.891 149.578,43.986 C149.604,44.613 149.451,45.436 149.493,46.009 C149.782,49.973 149.085,54.551 149.085,58.663 C151.838,56.621 153.069,53.017 156.124,50.847 C159.212,48.652 161.504,46.397 164.214,43.708 C167.205,40.738 170.085,37.645 173.05,34.676 C175.006,32.718 174.456,32.258 177.321,32.808 C179.326,33.192 179.886,35.465 182.449,34.713 C182.572,35.987 184.362,36.888 185.265,37.575 C184.362,36.888 188.41,41.099 187.722,39.32 C188.63,41.671 186.207,43.512 184.704,44.811 C183.363,45.972 182.509,46.426 181.638,48.027 C180.734,49.689 181.025,50.719 179.466,51.885 C178.615,52.521 176.931,52.129 176.194,52.932 C175.331,53.87 175.543,55.273 175.201,56.423 C174.468,58.879 172.568,60.35 170.522,61.852 C166.998,64.439 164.913,68.077 161.74,70.987 C160.701,71.941 159.999,72.306 158.995,72.824 C158.048,73.313 157.435,72.861 156.584,73.801 C157.683,72.588 157.12,75.662 157.15,75.54 C156.208,75.855 155.816,76.474 155.971,77.394 C156.22,78.085 156.364,78.797 156.403,79.529 C153.024,79.529 152.841,77.458 150.763,80.901 C149.079,83.693 147.392,87.788 146.476,90.953 C146.338,91.43 145.728,93.746 145.704,94.259 C144.966,94.611 144.723,95.122 144.973,95.789 C145.343,95.982 145.713,96.176 146.082,96.369 C146.164,97.259 146.687,98.335 146.147,99.259 C145.469,100.42 143.702,99.005 143.117,100.543 C142.499,99.926 142.373,98.7 142.152,97.896 C141.243,98.446 141.485,99.225 140.305,99.679 C139.266,100.078 138.82,97.906 137.745,99.559 C136.247,98.194 139.079,98.045 139.489,97.318 C140.86,94.884 139.351,95.172 138.454,93.7 C137.643,92.367 136.965,91.219 136.076,89.875 C136.015,89.783 133.7,86.421 133.663,88.185 C133.651,88.786 135.21,89.842 134.389,90.666 C133.245,91.815 132.44,90.256 131.924,90.666 C131.539,90.974 131.878,92.397 131.44,92.664 C130.896,92.994 129.763,92.957 129.425,93.461 C128.682,94.569 129.34,95.932 128.476,96.983 C127.398,96.544 124.474,94.472 123.677,95.222 C122.484,96.345 124.583,99.019 121.754,99.087 C121.995,101.898 123.723,102.266 120.927,104.615 C119.903,105.476 118.705,105.596 117.775,106.149 C117.091,106.557 116.512,107.178 115.751,107.681 C113.01,109.493 110.194,109.691 107.324,111.269 C106.233,111.869 104.871,113.952 103.879,114.146 C102.461,114.424 102.866,113.357 101.535,113.019 C98.2,112.174 100.63,113.328 97.589,113.994 C95.318,114.492 96.003,113.766 94.08,112.787 C92.122,111.791 89.501,111.325 87.518,110.212 C84.534,108.536 81.752,106.16 78.789,104.364 C74.914,102.015 72.888,100.231 71.771,95.993 C68.648,96.85 67.764,92.997 67.653,90.929 C67.453,87.185 68.144,88.807 70.42,88.076 C70.239,88.135 69.252,83.52 68.598,83.188 C67.083,81.851 66.775,81.224 66.084,78.656 Z M90.314,68.802 C90.493,68.973 90.671,69.143 90.85,69.313 C95.029,67.17 99.62,63.85 103.495,61.099 C106.958,58.639 107.73,55.344 108.172,51.532 C108.393,49.629 108.508,48.536 105.62,50.339 C103.801,51.474 102.513,53.812 101.02,55.309 C96.802,59.534 93.926,64.082 90.314,68.802 Z" id="Combined-Shape"></path>
        </g>
    </g>
</svg>