<?xml version="1.0" encoding="utf-8"?>
<!-- Generator: Adobe Illustrator 24.0.0, SVG Export Plug-In . SVG Version: 6.00 Build 0)  -->
<svg version="1.1" id="Layer_1" xmlns="http://www.w3.org/2000/svg" xmlns:xlink="http://www.w3.org/1999/xlink" x="0px" y="0px"
	 viewBox="0 0 612 137.1" style="enable-background:new 0 0 612 137.1;" xml:space="preserve">
<style type="text/css">
	.st0{fill:#FFFFFF;}
</style>
<g>
	<path class="st0" d="M170.5,95.6V70.3h-0.2l-10.2,25h-4.9l-10.2-25h-0.2v25.3h-7V58.1h9.1l10.7,26.6h0.2l10.7-26.6h9.1v37.5H170.5z
		"/>
	<path class="st0" d="M189.9,84.9c0.4,3.1,3.6,5.1,7.8,5.1c4.2,0,7.1-2,7.1-4.8c0-2.4-1.8-3.8-6.3-4.8l-4.9-1.1
		c-6.9-1.5-10.3-5-10.3-10.5c0-6.9,6-11.5,14.4-11.5c8.7,0,14.2,4.5,14.4,11.3h-7.4c-0.3-3.2-3-5.1-7-5.1c-3.9,0-6.5,1.8-6.5,4.6
		c0,2.3,1.8,3.6,6.1,4.6l4.6,1c7.5,1.6,10.8,4.8,10.8,10.6c0,7.3-5.9,11.9-15.2,11.9c-9,0-14.8-4.3-15-11.3H189.9z"/>
	<path class="st0" d="M217.4,95.6V58.1h6.6l17.5,24.5h0.2V58.1h7.5v37.5h-6.5L225.2,71h-0.2v24.6H217.4z"/>
</g>
<g>
	<path id="path3011" class="st0" d="M27.3,132.9c-7.8,0-14.4-4.9-14.4-15.9c0-17.1,14.7-30,21.3-33.7c0,0,9.3,5.4,19,8.8
		C34,80,21.7,57.9,21.7,33.3C21.7,10.3,33.8,0,44.8,0c8.8,0,29.7,9.7,29.7,46.8C74.5,86.8,53.6,132.9,27.3,132.9L27.3,132.9z"/>
	<path id="path3021" class="st0" d="M60.8,120.3c0,5.8,2,8.1,5.1,8.1c7.7,0,20.1-18.1,19.6-37.1c11.7-12.4,25.8-31.8,25.8-47.3
		c0-3.8-1.1-6.9-5.5-6.9C99,37,89.3,48.7,83.1,60.4c-6,12.1-11.5,25.9-18.9,44.8C62.5,110,60.8,115.7,60.8,120.3L60.8,120.3z"/>
</g>
</svg>
