<?xml version="1.0" encoding="utf-8"?>
<!-- Generator: Adobe Illustrator 24.0.0, SVG Export Plug-In . SVG Version: 6.00 Build 0)  -->
<svg version="1.1" id="Layer_1" xmlns="http://www.w3.org/2000/svg" xmlns:xlink="http://www.w3.org/1999/xlink" x="0px" y="0px"
	 viewBox="0 0 412 98" style="enable-background:new 0 0 412 98;" xml:space="preserve">
<style type="text/css">
	.st0{fill:#FFFFFF;}
</style>
<g>
	<path class="st0" d="M154.5,70.8c0.5,0.5,0.7,1,0.7,1.6c0,0.9-0.6,1.8-1.7,2.6c-1.1,0.8-2.5,1.5-4.1,2c-1.6,0.5-3.1,0.8-4.4,0.8
		c-2.1,0-3.8-0.2-5.2-0.6c-1.3-0.4-2.7-1-4.1-1.8c-1.1-0.6-2-1-2.7-1.3s-1.5-0.4-2.4-0.4c-0.4,0-0.8,0.1-1.2,0.2
		c-0.4,0.1-0.7,0.3-1.1,0.4c-0.8,0.4-1.6,0.6-2.3,0.6c-0.7,0-1.2-0.3-1.7-0.8c-0.5-0.5-0.7-1.1-0.7-1.7c0-1.1,0.5-1.8,1.4-2.1
		l5.8-2.1c-2.8-0.5-5.3-1.6-7.5-3.3s-3.9-3.9-5.1-6.6c-1.2-2.6-1.8-5.5-1.8-8.6c0-3.5,0.8-6.7,2.3-9.5c1.5-2.8,3.6-5.1,6.3-6.8
		c2.7-1.7,5.7-2.5,9.1-2.5c3.4,0,6.4,0.8,9.1,2.5c2.7,1.7,4.8,3.9,6.3,6.8c1.5,2.9,2.3,6,2.3,9.5c0,3.1-0.6,5.9-1.7,8.4
		c-1.2,2.6-2.8,4.7-4.9,6.5c-2.1,1.7-4.5,2.9-7.2,3.4l-4,1.5c0.9,0.1,1.7,0.3,2.4,0.6s1.6,0.7,2.6,1.2c1.3,0.6,2.3,1.1,3.3,1.4
		c0.9,0.3,2,0.5,3.1,0.5c1,0,1.9-0.1,2.6-0.4c0.7-0.3,1.4-0.7,2.1-1.1c0.3-0.2,0.6-0.5,1-0.8s0.7-0.5,1-0.7s0.6-0.2,0.9-0.2
		C153.5,70.1,154,70.4,154.5,70.8z M123.4,56.9c1,2.1,2.5,3.8,4.4,5c1.9,1.2,4,1.8,6.3,1.8c2.4,0,4.5-0.6,6.3-1.8s3.3-2.8,4.4-5
		c1-2.1,1.6-4.5,1.6-7.1s-0.5-5-1.6-7.1c-1-2.1-2.5-3.8-4.4-5s-4-1.8-6.3-1.8c-2.4,0-4.5,0.6-6.3,1.8c-1.9,1.2-3.3,2.8-4.4,4.9
		c-1,2.1-1.6,4.5-1.6,7.1C121.9,52.4,122.4,54.8,123.4,56.9z"/>
	<path class="st0" d="M179.3,41.5c0.5,0.5,0.7,1.1,0.7,1.8v13.9c0,3.6-1,6.4-3,8.4c-2,2-4.8,3-8.5,3c-3.6,0-6.4-1-8.4-3
		c-2-2-3-4.8-3-8.4V43.2c0-0.7,0.2-1.3,0.7-1.8c0.5-0.5,1.1-0.7,1.7-0.7c0.7,0,1.3,0.2,1.8,0.7c0.5,0.5,0.7,1.1,0.7,1.8v13.9
		c0,4.6,2.1,6.8,6.4,6.8c2.1,0,3.7-0.6,4.8-1.7c1.1-1.1,1.7-2.8,1.7-5.1V43.2c0-0.7,0.2-1.3,0.7-1.8c0.5-0.5,1.1-0.7,1.7-0.7
		C178.3,40.7,178.9,41,179.3,41.5z"/>
	<path class="st0" d="M210.1,54.9c-0.5,0.4-1.1,0.7-1.7,0.7h-18.3c0.2,2.5,1.2,4.6,2.9,6.1c1.7,1.5,3.7,2.3,6.2,2.3
		c1.7,0,3-0.2,4.1-0.7c1-0.5,2-1.1,2.8-1.9c0.5-0.3,1-0.5,1.5-0.5c0.6,0,1.1,0.2,1.5,0.6c0.4,0.4,0.6,0.9,0.6,1.5c0,0.7-0.3,1.4-1,2
		c-1,1-2.3,1.9-4,2.6s-3.4,1-5.1,1c-2.8,0-5.3-0.6-7.4-1.8c-2.1-1.2-3.8-2.8-5-5c-1.2-2.1-1.7-4.5-1.7-7.2c0-2.9,0.6-5.5,1.8-7.7
		c1.2-2.2,2.8-3.9,4.7-5.1c2-1.2,4.1-1.8,6.3-1.8c2.2,0,4.3,0.6,6.3,1.7s3.5,2.7,4.7,4.7c1.2,2,1.8,4.3,1.8,6.8
		C210.9,54,210.6,54.5,210.1,54.9z M193.1,46.3c-1.4,1.1-2.4,2.8-2.8,5.1h15.4V51c-0.2-1.8-1-3.4-2.5-4.5c-1.5-1.2-3.2-1.8-5-1.8
		C196.2,44.7,194.5,45.2,193.1,46.3z"/>
	<path class="st0" d="M214.1,62.4c0-0.7,0.4-1.3,1.1-1.8c0.3-0.2,0.7-0.4,1.2-0.4c0.6,0,1.2,0.3,1.7,0.8c1,1.2,2.2,2.1,3.4,2.7
		c1.2,0.6,2.6,0.9,4.3,0.9c1.3,0,2.5-0.3,3.5-0.9c1-0.6,1.5-1.5,1.5-2.8c0-1.2-0.5-2.1-1.5-2.7c-1-0.6-2.5-1.2-4.5-1.7
		c-1.9-0.5-3.6-1.1-4.8-1.6c-1.3-0.6-2.4-1.4-3.3-2.5c-0.9-1.1-1.3-2.5-1.3-4.3c0-1.6,0.4-2.9,1.3-4.1c0.9-1.2,2.1-2.1,3.5-2.8
		c1.5-0.7,3.1-1,4.8-1c1.7,0,3.3,0.3,5,0.9c1.7,0.6,3,1.6,4,2.9c0.4,0.5,0.6,1,0.6,1.5c0,0.6-0.3,1.1-0.8,1.6
		c-0.3,0.3-0.8,0.5-1.3,0.5c-0.6,0-1.1-0.2-1.5-0.6c-0.7-0.8-1.6-1.5-2.7-1.9c-1.1-0.5-2.2-0.7-3.5-0.7c-1.3,0-2.4,0.3-3.4,0.8
		c-0.9,0.5-1.4,1.5-1.4,2.7c0,1.2,0.6,2.1,1.6,2.7c1,0.6,2.6,1.2,4.7,1.7c1.8,0.5,3.4,1,4.6,1.6c1.2,0.6,2.2,1.4,3.1,2.5
		s1.3,2.5,1.3,4.3c0,1.6-0.5,3-1.4,4.2s-2.2,2.1-3.7,2.8c-1.5,0.6-3.1,1-4.8,1c-2.2,0-4.2-0.4-6.1-1.1c-1.9-0.8-3.4-2-4.7-3.6
		C214.2,63.3,214.1,62.8,214.1,62.4z"/>
	<path class="st0" d="M247.9,45.6v15.5c0,1.7,0.8,2.6,2.3,2.6c0.2,0,0.6-0.1,1-0.2c0.4-0.1,0.7-0.2,1-0.2c0.5,0,0.8,0.2,1.1,0.6
		c0.3,0.4,0.5,0.9,0.5,1.5c0,0.7-0.4,1.4-1.3,1.9s-1.8,0.8-2.8,0.8c-1.1,0-2.2-0.1-3.2-0.4c-1-0.2-1.8-0.9-2.6-1.9s-1.1-2.5-1.1-4.5
		V45.6h-3c-0.7,0-1.2-0.2-1.6-0.7c-0.4-0.4-0.7-1-0.7-1.6c0-0.7,0.2-1.2,0.7-1.6s1-0.6,1.6-0.6h3v-4.4c0-0.7,0.2-1.3,0.7-1.8
		c0.5-0.5,1.1-0.7,1.8-0.7c0.7,0,1.3,0.2,1.7,0.7c0.5,0.5,0.7,1.1,0.7,1.8V41h4.3c0.7,0,1.2,0.2,1.6,0.7c0.4,0.4,0.7,1,0.7,1.6
		c0,0.7-0.2,1.2-0.7,1.6c-0.4,0.4-1,0.6-1.6,0.6H247.9z"/>
	<path class="st0" d="M299.8,32.2c0.5,0.4,0.7,1,0.7,1.7c0,0.7-0.2,1.3-0.7,1.7c-0.5,0.4-1.1,0.6-1.8,0.6h-9.3v29.2
		c0,0.7-0.3,1.3-0.8,1.8S286.8,68,286,68c-0.8,0-1.4-0.2-1.9-0.7c-0.5-0.5-0.8-1.1-0.8-1.8V36.3h-9.2c-0.7,0-1.3-0.2-1.8-0.7
		c-0.5-0.4-0.7-1-0.7-1.7c0-0.7,0.2-1.3,0.7-1.7c0.5-0.4,1.1-0.7,1.8-0.7H298C298.7,31.6,299.3,31.8,299.8,32.2z"/>
	<path class="st0" d="M323.1,61.7c-1.2,2.2-2.9,3.8-5,5.1c-2.1,1.2-4.4,1.8-7,1.8c-2.5,0-4.9-0.6-7-1.8c-2.1-1.2-3.8-2.9-5-5.1
		c-1.2-2.2-1.8-4.6-1.8-7.3c0-2.7,0.6-5.2,1.8-7.4c1.2-2.2,2.9-3.9,5-5.1c2.1-1.2,4.4-1.8,7-1.8c2.5,0,4.9,0.6,7,1.8
		c2.1,1.2,3.8,2.9,5,5.1c1.2,2.2,1.8,4.6,1.8,7.4C324.9,57.1,324.3,59.5,323.1,61.7z M318.8,49.4c-0.8-1.5-1.8-2.6-3.2-3.4
		c-1.3-0.8-2.8-1.2-4.5-1.2c-1.6,0-3.1,0.4-4.5,1.2c-1.3,0.8-2.4,2-3.2,3.4c-0.8,1.5-1.2,3.2-1.2,5c0,1.8,0.4,3.5,1.2,5
		c0.8,1.5,1.8,2.6,3.2,3.4c1.3,0.8,2.8,1.2,4.5,1.2c1.6,0,3.1-0.4,4.5-1.2c1.3-0.8,2.4-2,3.2-3.4c0.8-1.5,1.2-3.1,1.2-5
		C320,52.5,319.6,50.8,318.8,49.4z"/>
	<path class="st0" d="M352.3,41.5c0.5,0.5,0.7,1.1,0.7,1.8v13.9c0,3.6-1,6.4-3,8.4c-2,2-4.8,3-8.5,3c-3.6,0-6.4-1-8.4-3
		c-2-2-3-4.8-3-8.4V43.2c0-0.7,0.2-1.3,0.7-1.8c0.5-0.5,1.1-0.7,1.7-0.7c0.7,0,1.3,0.2,1.8,0.7c0.5,0.5,0.7,1.1,0.7,1.8v13.9
		c0,4.6,2.1,6.8,6.4,6.8c2.1,0,3.7-0.6,4.8-1.7c1.1-1.1,1.7-2.8,1.7-5.1V43.2c0-0.7,0.2-1.3,0.7-1.8c0.5-0.5,1.1-0.7,1.7-0.7
		C351.2,40.7,351.8,41,352.3,41.5z"/>
	<path class="st0" d="M375.8,40.8c0.7,0.5,1,1.1,1,1.7c0,0.8-0.2,1.5-0.7,1.9c-0.4,0.4-1,0.7-1.6,0.7c-0.3,0-0.8-0.1-1.4-0.3
		c-0.7-0.2-1.3-0.4-1.7-0.4c-1.1,0-2.1,0.4-3.2,1.1c-1,0.7-1.9,1.8-2.5,3.1c-0.6,1.3-1,2.8-1,4.4v12.6c0,0.7-0.2,1.3-0.7,1.8
		c-0.5,0.5-1.1,0.7-1.8,0.7s-1.3-0.2-1.8-0.7c-0.5-0.5-0.7-1.1-0.7-1.8V43.2c0-0.7,0.2-1.3,0.7-1.8c0.5-0.5,1.1-0.7,1.7-0.7
		c0.7,0,1.3,0.2,1.8,0.7c0.5,0.5,0.7,1.1,0.7,1.8v2.7c0.8-1.7,1.9-3.1,3.4-4.1c1.5-1.1,3.3-1.6,5.2-1.6
		C374.3,40.1,375.1,40.3,375.8,40.8z"/>
	<path class="st0" d="M378.8,62.4c0-0.7,0.4-1.3,1.1-1.8c0.3-0.2,0.7-0.4,1.2-0.4c0.6,0,1.2,0.3,1.7,0.8c1,1.2,2.2,2.1,3.4,2.7
		c1.2,0.6,2.6,0.9,4.3,0.9c1.3,0,2.5-0.3,3.5-0.9c1-0.6,1.5-1.5,1.5-2.8c0-1.2-0.5-2.1-1.5-2.7c-1-0.6-2.5-1.2-4.5-1.7
		c-1.9-0.5-3.6-1.1-4.8-1.6c-1.3-0.6-2.4-1.4-3.3-2.5c-0.9-1.1-1.3-2.5-1.3-4.3c0-1.6,0.4-2.9,1.3-4.1c0.9-1.2,2.1-2.1,3.5-2.8
		c1.5-0.7,3.1-1,4.8-1c1.7,0,3.3,0.3,5,0.9c1.7,0.6,3,1.6,4,2.9c0.4,0.5,0.6,1,0.6,1.5c0,0.6-0.3,1.1-0.8,1.6
		c-0.3,0.3-0.8,0.5-1.3,0.5c-0.6,0-1.1-0.2-1.5-0.6c-0.7-0.8-1.6-1.5-2.7-1.9c-1.1-0.5-2.2-0.7-3.5-0.7c-1.3,0-2.4,0.3-3.4,0.8
		c-0.9,0.5-1.4,1.5-1.4,2.7c0,1.2,0.6,2.1,1.6,2.7c1,0.6,2.6,1.2,4.7,1.7c1.8,0.5,3.4,1,4.6,1.6c1.2,0.6,2.2,1.4,3.1,2.5
		s1.3,2.5,1.3,4.3c0,1.6-0.5,3-1.4,4.2s-2.2,2.1-3.7,2.8c-1.5,0.6-3.1,1-4.8,1c-2.2,0-4.2-0.4-6.1-1.1c-1.9-0.8-3.4-2-4.7-3.6
		C379,63.3,378.8,62.8,378.8,62.4z"/>
</g>
<g>
	<path class="st0" d="M52.3,9.2c-22.2,0-40.3,18-40.3,40.3c0,22.2,18,40.3,40.3,40.3s40.3-18,40.3-40.3C92.6,27.3,74.6,9.2,52.3,9.2
		z M52.3,82.2c-18.1,0-32.7-14.7-32.7-32.7c0-18.1,14.7-32.7,32.7-32.7c18.1,0,32.7,14.7,32.7,32.7C85.1,67.6,70.4,82.2,52.3,82.2z"
		/>
	<path class="st0" d="M62.6,32c0,0-14.2,5-17.4,6.2c-3.3,1.2-4.4,4.3-4.4,4.3s-3.9,11-6.7,18.8c-1.1,9.1,6.2,6.4,6.2,6.4l6.1-2
		c0,0,9.6-3.3,13.1-4.5c3.5-1.2,4.3-4.4,4.3-4.4s3.7-10.4,6.6-19.1C73.1,29,62.6,32,62.6,32z M57.7,52.9c0,0-0.2,1.5-1.7,2
		c-1.5,0.5-13.6,4.6-13.6,4.6L47.1,46c0,0,0.1-1.1,1.8-1.7s13.4-4.6,13.4-4.6L57.7,52.9z"/>
	<path class="st0" d="M65.3,65.9c0.1-2.1,1.2-3.4,3.5-3.4c2.3,0,3.6,1.3,3.6,3.4c0.1,2.2-1.3,3.6-3.5,3.6
		C66.7,69.6,65.4,68.3,65.3,65.9z"/>
	<path class="st0" d="M39.5,33.1c-0.2,2.1-1.4,3.5-3.6,3.5c-2.3,0-3.7-1.5-3.6-3.8c0.1-2.1,1.5-3.5,3.7-3.4
		C38.1,29.5,39.3,30.9,39.5,33.1z"/>
</g>
</svg>
