<?xml version="1.0" standalone="no"?>
<!DOCTYPE svg PUBLIC "-//W3C//DTD SVG 20010904//EN"
 "http://www.w3.org/TR/2001/REC-SVG-20010904/DTD/svg10.dtd">
<svg version="1.0" xmlns="http://www.w3.org/2000/svg"
 width="750.000000pt" height="750.000000pt" viewBox="0 0 750.000000 750.000000"
 preserveAspectRatio="xMidYMid meet">
<metadata>
Created by potrace 1.11, written by Peter Selinger 2001-2013
</metadata>
<g transform="translate(0.000000,750.000000) scale(0.100000,-0.100000)"
fill="#000000" stroke="none">
<path d="M72 7480 c-18 -11 -41 -34 -52 -52 -20 -33 -20 -59 -20 -3681 0
-3201 2 -3651 15 -3677 8 -15 27 -38 41 -49 l27 -21 3674 0 3675 0 34 34 34
34 0 3675 0 3674 -21 27 c-11 14 -34 33 -49 41 -26 13 -476 15 -3677 15 -3622
0 -3648 0 -3681 -20z m4545 -2305 c255 -605 463 -1101 463 -1102 0 -2 -179 -3
-399 -3 l-399 0 -172 428 c-95 235 -214 529 -264 654 -50 125 -93 228 -96 228
-3 0 -124 -295 -269 -655 l-264 -655 -399 0 c-316 0 -399 3 -395 13 18 45 892
2120 907 2155 l19 42 403 -2 403 -3 462 -1100z m-1646 -1722 c-94 -233 -910
-2225 -913 -2229 -3 -2 -192 -3 -420 -2 l-415 3 463 1105 c255 608 470 1120
479 1138 l15 32 405 0 405 0 -19 -47z m2657 -690 c172 -406 388 -918 480
-1138 l169 -400 -415 -3 c-228 -1 -417 0 -419 2 -5 5 -918 2225 -928 2256 -6
20 -2 20 398 20 l404 0 311 -737z"/>
</g>
</svg>
