<?xml version="1.0" encoding="utf-8"?>
<!-- Generator: Adobe Illustrator 24.0.0, SVG Export Plug-In . SVG Version: 6.00 Build 0)  -->
<svg version="1.1" id="Layer_1" xmlns="http://www.w3.org/2000/svg" xmlns:xlink="http://www.w3.org/1999/xlink" x="0px" y="0px"
	 viewBox="0 0 412 98" style="enable-background:new 0 0 412 98;" xml:space="preserve">
<style type="text/css">
	.st0{fill:#FFFFFF;}
</style>
<path id="path2" class="st0" d="M30.5,40.1c-0.1-0.2-0.5-0.4-1.2-0.9c-0.7-0.4-1.5-0.9-2.6-1.3c-1-0.5-2.2-0.9-3.4-1.2
	c-1.2-0.3-2.4-0.5-3.7-0.5c-3.3,0-5,1.1-5,3.4c0,0.7,0.2,1.3,0.5,1.7c0.4,0.5,0.9,0.9,1.6,1.2c0.7,0.4,1.6,0.7,2.7,1l2.4,0.7
	l1.4,0.4c1.9,0.5,3.7,1.1,5.3,1.7c1.6,0.6,2.9,1.4,4,2.3c1.1,0.9,1.9,2.1,2.5,3.4c0.6,1.3,0.9,2.9,0.9,4.8c0,2.3-0.4,4.2-1.3,5.8
	c-0.9,1.6-2,2.9-3.4,3.8c-1.4,1-3,1.7-4.9,2.1c-1.8,0.4-3.7,0.7-5.7,0.7c-3.1,0-6.2-0.5-9.1-1.3c-1.5-0.4-2.9-1-4.3-1.6
	c-1.3-0.6-2.6-1.3-3.9-2.1L7.5,56c0.2,0.2,0.6,0.6,1.5,1.1c0.8,0.5,1.9,1.1,3.1,1.6c1.2,0.5,2.6,1,4.1,1.4c1.5,0.4,3.1,0.6,4.6,0.6
	c3.3,0,5-1,5-3c0-0.8-0.2-1.4-0.7-1.9c-0.5-0.5-1.2-0.9-2.1-1.3c-0.8-0.4-1.7-0.7-2.5-0.9l-2.9-0.8L16,52.3
	c-1.9-0.6-3.5-1.2-4.9-1.9S8.6,49,7.7,48.1c-0.9-0.9-1.6-1.9-2-3c-0.4-1.1-0.7-2.5-0.7-4c0-2.1,0.4-4,1.2-5.7c0.8-1.6,1.9-3,3.3-4.1
	c1.4-1.1,3-2,4.8-2.5c1.8-0.6,3.7-0.9,5.7-0.9c1.4,0,2.8,0.1,4.2,0.4c1.4,0.3,2.7,0.6,3.9,1c1.3,0.4,2.4,0.9,3.5,1.4
	c1.1,0.5,2.1,1.1,3,1.6L30.5,40.1L30.5,40.1z M69.8,68.8h-9.1V51.9c0-1.9-0.4-3.4-1.1-4.3c-0.8-0.9-1.8-1.4-3.1-1.4
	c-0.5,0-1.1,0.1-1.7,0.4c-0.7,0.3-1.3,0.6-1.8,1.1c-0.6,0.5-1.2,1.1-1.6,1.7c-0.5,0.7-0.9,1.4-1.1,2.2v17.2H41V27.1h9.1v16.7
	c1.1-1.7,2.6-3.2,4.4-4.1c1.8-1,3.8-1.5,6-1.5c2,0,3.6,0.4,4.9,1.1c1.2,0.7,2.2,1.6,2.9,2.7c0.7,1.1,1.1,2.3,1.3,3.7
	c0.2,1.4,0.3,2.7,0.3,4V68.8z M90.6,69.3c-2.5,0-4.8-0.4-6.8-1.3c-2-0.8-3.7-2-5.1-3.4c-1.4-1.4-2.4-3.1-3.1-5
	c-0.7-1.9-1.1-3.9-1.1-5.9c0-2.1,0.4-4,1.1-5.9c0.7-1.9,1.7-3.5,3.1-5c1.4-1.4,3.1-2.6,5.1-3.4s4.3-1.3,6.8-1.3
	c2.5,0,4.8,0.4,6.8,1.3s3.7,2,5,3.4c1.4,1.4,2.4,3.1,3.1,5c0.7,1.9,1.1,3.9,1.1,5.9c0,2-0.4,4-1.1,5.9c-0.7,1.9-1.7,3.5-3.1,5
	c-1.4,1.4-3.1,2.6-5.1,3.4S93.1,69.3,90.6,69.3z M83.9,53.8c0,2.4,0.6,4.3,1.9,5.7c1.3,1.4,2.9,2.1,4.8,2.1c0.9,0,1.8-0.2,2.6-0.6
	c0.8-0.4,1.5-0.9,2.1-1.6c0.6-0.7,1.1-1.6,1.4-2.5c0.4-1,0.5-2.1,0.5-3.2c0-2.4-0.6-4.3-1.9-5.7C94,46.7,92.5,46,90.6,46
	c-1.8,0-3.6,0.8-4.8,2.2c-0.6,0.7-1.1,1.6-1.4,2.5C84,51.7,83.9,52.7,83.9,53.8z M130.5,46.6c-2.2,0-4.2,0.4-6,1.1
	c-1.8,0.7-3.1,1.7-3.9,3.1v18h-9.1v-30h8.4v6c1-2,2.3-3.6,4-4.7c1.6-1.1,3.3-1.7,5.2-1.8h0.9c0.2,0,0.4,0,0.6,0.1V46.6z M154.1,67.2
	c-1.4,0.6-2.8,1.1-4.3,1.5c-1.6,0.5-3.2,0.7-4.9,0.7c-1.1,0-2.2-0.1-3.2-0.4c-1-0.3-1.9-0.7-2.7-1.4c-0.8-0.6-1.4-1.5-1.8-2.5
	c-0.4-1-0.7-2.3-0.7-3.7V45.7h-3.8v-6.9h3.8v-9.5h9.1v9.5h6.1v6.9h-6.1v12.5c0,1,0.2,1.7,0.7,2.1c0.5,0.4,1.1,0.7,1.9,0.7
	c0.7,0,1.4-0.1,2.1-0.3c0.7-0.2,1.4-0.5,1.9-0.7L154.1,67.2z M157.9,27.1h9.1v31c0,2.3,1,3.4,2.9,3.4c0.5,0,1-0.1,1.5-0.2
	c0.6-0.1,1.1-0.3,1.5-0.6l1.2,6.8c-1.1,0.5-2.5,1-3.9,1.3c-1.5,0.3-2.9,0.5-4.2,0.5c-2.6,0-4.6-0.7-6-2.1c-1.4-1.4-2.1-3.3-2.1-5.9
	C157.9,61.3,157.9,27.1,157.9,27.1z M177.2,73.3c0.8,0.3,1.5,0.5,2.1,0.6c0.6,0.1,1.2,0.2,1.8,0.2c1.1,0,2-0.4,2.6-1.1
	c0.6-0.8,1.2-2.1,1.7-4.1l-11.4-30h9.4l7,22.1l6-22.1h8.6l-11.4,34.8c-0.8,2.4-2.3,4.5-4.3,6c-2.1,1.5-4.5,2.3-7.3,2.3
	c-0.8,0-1.5-0.1-2.3-0.2c-0.8-0.1-1.6-0.4-2.4-0.7L177.2,73.3L177.2,73.3z"/>
</svg>
