<?xml version="1.0" encoding="utf-8"?>
<!-- Generator: Adobe Illustrator 24.0.0, SVG Export Plug-In . SVG Version: 6.00 Build 0)  -->
<svg version="1.1" id="Layer_1" xmlns="http://www.w3.org/2000/svg" xmlns:xlink="http://www.w3.org/1999/xlink" x="0px" y="0px"
	 viewBox="0 0 612 178" style="enable-background:new 0 0 612 178;" xml:space="preserve">
<style type="text/css">
	.st0{fill:#FFFFFF;}
</style>
<path class="st0" d="M86.1,13c-42.5,0-77,34.5-77,77c0,42.5,34.5,77,77,77c42.5,0,77-34.5,77-77C163,47.4,128.6,13,86.1,13
	C86.1,13,86.1,13,86.1,13z M121.4,124c-1.4,2.3-4.3,3-6.6,1.6c-18.1-11-40.8-13.5-67.6-7.4c-2.6,0.6-5.2-1-5.7-3.6
	c-0.6-2.6,1-5.2,3.6-5.7c29.3-6.7,54.5-3.8,74.7,8.6C122,118.7,122.7,121.7,121.4,124z M130.8,103c-1.7,2.8-5.4,3.7-8.3,2
	c-20.7-12.7-52.2-16.4-76.7-9c-3.2,1-6.5-0.8-7.5-4c-1-3.2,0.8-6.5,4-7.5c27.9-8.5,62.7-4.4,86.5,10.2
	C131.6,96.5,132.5,100.2,130.8,103L130.8,103z M131.6,81.2c-24.8-14.7-65.7-16.1-89.4-8.9c-3.8,1.2-7.8-1-9-4.8
	c-1.2-3.8,1-7.8,4.8-9c27.2-8.3,72.4-6.7,100.9,10.3c3.4,2,4.5,6.4,2.5,9.9C139.4,82.1,135,83.2,131.6,81.2L131.6,81.2z M218.5,84
	c-13.3-3.2-15.7-5.4-15.7-10.1c0-4.4,4.2-7.4,10.3-7.4c6,0,11.9,2.3,18.2,6.9c0.2,0.1,0.4,0.2,0.7,0.2c0.2,0,0.4-0.2,0.6-0.4
	l6.5-9.1c0.3-0.4,0.2-0.9-0.2-1.2c-7.4-5.9-15.8-8.8-25.5-8.8C199,54.1,189,62.7,189,75c0,13.2,8.6,17.9,23.6,21.5
	c12.7,2.9,14.9,5.4,14.9,9.8c0,4.9-4.3,7.9-11.3,7.9c-7.8,0-14.1-2.6-21.2-8.7c-0.2-0.2-0.4-0.2-0.6-0.2c-0.2,0-0.5,0.1-0.6,0.3
	l-7.3,8.7c-0.3,0.4-0.3,0.9,0.1,1.2c8.2,7.4,18.4,11.2,29.3,11.2c15.5,0,25.4-8.4,25.4-21.5C241.3,94.1,234.7,87.9,218.5,84
	C218.5,84,218.5,84,218.5,84z M276.2,70.9c-6.7,0-12.2,2.6-16.7,8v-6.1c0-0.5-0.4-0.9-0.9-0.9h-11.9c-0.5,0-0.9,0.4-0.9,0.9v67.6
	c0,0.5,0.4,0.9,0.9,0.9h11.9c0.5,0,0.9-0.4,0.9-0.9v-21.3c4.5,5.1,10,7.6,16.7,7.6c12.5,0,25.1-9.6,25.1-27.9
	C301.3,80.5,288.7,70.9,276.2,70.9L276.2,70.9L276.2,70.9z M287.5,98.8c0,9.3-5.7,15.8-14,15.8c-8.1,0-14.3-6.8-14.3-15.8
	c0-9,6.1-15.8,14.3-15.8C281.6,83,287.5,89.6,287.5,98.8L287.5,98.8z M333.6,70.9c-16,0-28.6,12.3-28.6,28.1
	c0,15.6,12.5,27.8,28.4,27.8c16.1,0,28.7-12.3,28.7-28C362.1,83.2,349.6,70.9,333.6,70.9L333.6,70.9z M333.6,114.7
	c-8.5,0-15-6.9-15-15.9c0-9.1,6.2-15.7,14.8-15.7c8.6,0,15.1,6.9,15.1,15.9C348.5,108.1,342.2,114.7,333.6,114.7z M522.8,72v-1.6
	c0-4.8,1.9-7,6-7c2.5,0,4.5,0.5,6.7,1.2c0.3,0.1,0.6,0,0.8-0.1c0.2-0.2,0.4-0.4,0.4-0.7v-10c0-0.4-0.2-0.7-0.6-0.8
	c-2.4-0.7-5.4-1.4-9.9-1.4c-11,0-16.8,6.2-16.8,17.9v2.5h-5.7c-0.5,0-0.9,0.4-0.9,0.9v10.3c0,0.5,0.4,0.9,0.9,0.9h5.7v40.8
	c0,0.5,0.4,0.9,0.9,0.9h11.9c0.5,0,0.9-0.4,0.9-0.9V84h11.1l17,40.8c-1.9,4.3-3.8,5.1-6.4,5.1c-2.1,0-4.3-0.6-6.6-1.9
	c-0.2-0.1-0.5-0.1-0.7-0.1c-0.2,0.1-0.4,0.2-0.5,0.5l-4,8.8c-0.2,0.4,0,0.9,0.4,1.1c4.2,2.3,8,3.3,12.7,3.3
	c8.8,0,13.6-4.1,17.9-15.1l20.6-53.3c0.1-0.3,0.1-0.6-0.1-0.8c-0.2-0.2-0.4-0.4-0.7-0.4h-12.4c-0.4,0-0.7,0.2-0.8,0.6l-12.7,36.2
	L544,72.6c-0.1-0.3-0.5-0.6-0.8-0.6L522.8,72L522.8,72L522.8,72z M496.4,72h-11.9c-0.5,0-0.9,0.4-0.9,0.9v51.9
	c0,0.5,0.4,0.9,0.9,0.9h11.9c0.5,0,0.9-0.4,0.9-0.9V72.9C497.3,72.4,496.9,72,496.4,72C496.4,72,496.4,72,496.4,72z M490.5,48.3
	c-4.7,0-8.5,3.8-8.5,8.5c0,4.7,3.8,8.5,8.5,8.5s8.5-3.8,8.5-8.5C499,52.2,495.2,48.3,490.5,48.3z M594.7,88.7
	c-4.7,0-8.4-3.8-8.4-8.4c0-4.6,3.7-8.4,8.4-8.4s8.4,3.8,8.4,8.4C603.2,84.8,599.4,88.7,594.7,88.7z M594.8,72.7
	c-4.3,0-7.5,3.4-7.5,7.6c0,4.2,3.2,7.5,7.5,7.5c4.3,0,7.5-3.4,7.5-7.6C602.3,76.1,599,72.7,594.8,72.7z M596.6,81.1l2.4,3.3h-2
	l-2.1-3H593v3h-1.7v-8.8h3.9c2,0,3.4,1,3.4,2.8C598.7,79.9,597.9,80.8,596.6,81.1L596.6,81.1z M595.2,77.1H593v2.8h2.2
	c1.1,0,1.7-0.5,1.7-1.4C597,77.6,596.3,77.1,595.2,77.1z"/>
<path class="st0" d="M393.3,70.9L393.3,70.9c-16,0-28.6,12.3-28.6,28.1c0,15.6,12.5,27.8,28.4,27.8c16.1,0,28.7-12.3,28.7-28
	C421.8,83.2,409.3,70.9,393.3,70.9z M393.3,114.7c-8.5,0-15-6.9-15-15.9c0-9.1,6.2-15.7,14.8-15.7c8.6,0,15.1,6.9,15.1,15.9
	C408.2,108.1,402,114.7,393.3,114.7z"/>
<path class="st0" d="M454.8,73c-6.7,0-12.2,2.5-16.7,7.6V49.4c0-0.5-0.4-0.9-0.9-0.9h-11.9c-0.5,0-0.9,0.4-0.9,0.9v76.4
	c0,0.5,0.4,0.9,0.9,0.9h11.9c0.5,0,0.9-0.4,0.9-0.9v-5.1c4.5,5.4,10,8,16.7,8l0,0c12.5,0,25.1-9.6,25.1-27.9
	C479.9,82.6,467.3,73,454.8,73z M466.1,100.9c0,9.2-5.9,15.8-14,15.8c-8.1,0-14.3-6.8-14.3-15.8c0-9,6.1-15.8,14.3-15.8
	C460.3,85.1,466.1,91.6,466.1,100.9L466.1,100.9z"/>
</svg>
